<?xml version="1.0" encoding="utf-8"?>
<!-- Generator: Adobe Illustrator 19.2.1, SVG Export Plug-In . SVG Version: 6.00 Build 0)  -->
<svg version="1.1" id="Layer_1" xmlns="http://www.w3.org/2000/svg" xmlns:xlink="http://www.w3.org/1999/xlink" x="0px" y="0px"
	 viewBox="0 0 861.7 142.4" style="enable-background:new 0 0 861.7 142.4;" xml:space="preserve">
<style type="text/css">
	.st0{fill:#FF1764;}
</style>
<title>logo</title>
<path class="st0" d="M63.9,78.1c0,10.1-3.3,18-10,23.6c-6.7,5.6-16,8.4-28,8.4c-4.8,0-9.6-0.5-14.2-1.7c-4.1-1-8-2.6-11.6-4.9V79.6
	c4.1,2.6,8.5,4.6,13.2,6.1c4.3,1.5,8.9,2.4,13.4,2.5c3.4,0,5.9-0.7,7.7-2.1c1.8-1.5,2.7-3.7,2.6-6c0-1.2-0.3-2.4-0.8-3.5
	c-0.6-1.2-1.4-2.3-2.3-3.2c-1-1.1-3.7-3.4-8.1-7.1c-5.3-4.3-9.2-8.7-11.6-13.1c-2.4-4.5-3.7-9.6-3.6-14.7
	C10.3,26.8,17,16.2,27.6,11.3c5.7-2.7,12-4,18.3-3.9c10.3-0.2,20.4,2.4,29.4,7.3L66,35c-7.8-4-14.4-6-19.9-6c-2.9,0-5.2,0.6-6.7,1.9
	c-1.6,1.4-2.5,3.5-2.4,5.6c0,2.3,0.8,4.5,2.3,6.3c1.5,1.9,4.4,4.5,8.7,7.8c4.8,3.3,8.9,7.6,12,12.5C62.6,67.6,64,72.8,63.9,78.1z"/>
<path class="st0" d="M107.8,110.1c-6.5,0-11.8-3.3-15.8-9.9h-0.6c-0.7,8.5-2,17-3.8,25.4l-3.5,16.8H57.6L81.2,31.3h21.1l-0.8,8.7
	h0.6c4.4-6.7,10.3-10,17.6-10c7.1,0,12.7,2.5,16.8,7.6s6.1,12.1,6.1,21c0.1,8.9-1.6,17.8-4.8,26.1c-3.2,8.2-7.4,14.5-12.7,18.9
	C120.2,107.8,114.1,110.1,107.8,110.1z M109.6,51.2c-2.3,0-4.4,1.3-6.5,3.9c-2.3,3.1-4,6.7-4.9,10.5c-1.2,4.4-1.8,8.9-1.8,13.5
	c-0.1,2.5,0.4,4.9,1.6,7.1c0.9,1.7,2.6,2.7,4.4,2.7c2.2,0,4.3-1.3,6.3-3.9c2.3-3.2,3.9-6.7,4.9-10.5c1.3-4.4,1.9-8.9,1.9-13.5
	C115.5,54.5,113.5,51.2,109.6,51.2L109.6,51.2z"/>
<path class="st0" d="M204.8,108.8h-21.1l0.7-8.4h-0.5c-2.1,3.1-4.9,5.7-8.3,7.5c-3.1,1.5-6.5,2.3-10,2.2c-7.2,0-12.7-2.5-16.4-7.6
	c-3.7-5.1-5.6-12.4-5.6-21.9c0.1-8.6,1.8-17.1,5-25c3.3-8.5,7.5-14.9,12.6-19.2c4.6-4.1,10.6-6.4,16.8-6.4c3.5-0.1,7,0.8,10.1,2.6
	c3.3,2.1,6,4.9,7.8,8.3h0.5l3.6-9.6h21.2L204.8,108.8z M176.3,88.9c2.3,0,4.5-1.3,6.5-4c2.3-3.2,4-6.8,5-10.7
	c1.2-4.3,1.8-8.7,1.9-13.1c0.1-2.5-0.4-4.9-1.4-7.1c-0.7-1.7-2.4-2.8-4.2-2.7c-3.5,0-6.6,2.9-9.4,8.6c-2.9,6-4.3,12.6-4.2,19.2
	C170.5,85.6,172.4,88.9,176.3,88.9L176.3,88.9z"/>
<path class="st0" d="M273.8,30c1.8-0.1,3.7,0.1,5.5,0.5l-5.7,26.2c-2.7-1-5.5-1.6-8.4-1.5c-4.3-0.2-8.4,1.6-11.2,4.8
	c-2.8,3.2-4.9,8.1-6.4,14.7l-7.3,34h-26.4l16.3-77.4h21.1L250,44.2h0.5c3-5.1,6.2-8.8,9.6-11C263.7,31,268.2,29.9,273.8,30z"/>
<path class="st0" d="M286.7,2.4h26.5l-9.5,45.3c-1.3,5.2-2.8,10.3-4.7,15.3h0.6c3.1-4.8,6.6-9.4,10.5-13.7l16.5-18h30.2l-33.6,35
	l18.7,42.5H312L302.5,82l-6.9,3.6l-4.8,23.1h-26.4L286.7,2.4z"/>
<path class="st0" d="M437.9,8.8l-13.6,63.7c-2.7,12.8-7.8,22.3-15.4,28.4c-7.6,6.1-17.9,9.2-30.8,9.2c-5.6,0.1-11.2-1.2-16.2-3.8
	c-4.5-2.4-8.3-6-10.8-10.5c-2.6-4.6-3.9-9.8-3.8-15.1c0-3,0.3-5.9,0.8-8.8l13.6-63.1h26.7l-13.3,62.4c-0.6,2.6-0.9,5.2-1,7.9
	c0,5.8,2.8,8.7,8.3,8.7c3.9,0.2,7.6-1.4,10.1-4.4c2.4-2.9,4.3-7.4,5.6-13.5l13.1-61L437.9,8.8L437.9,8.8z"/>
<path class="st0" d="M471,110.1c-6.5,0-11.8-3.3-15.8-9.9h-0.5c-0.7,8.5-2,17-3.8,25.4l-3.5,16.8h-26.4l23.5-111.1h21.1l-0.8,8.7
	h0.5c4.4-6.7,10.3-10,17.6-10c7.1,0,12.7,2.5,16.8,7.6s6.1,12.1,6.1,21c0,8.9-1.6,17.8-4.8,26.1c-3.2,8.2-7.4,14.5-12.7,18.9
	C483.4,107.7,477.3,110.1,471,110.1z M472.8,51.2c-2.3,0-4.4,1.3-6.5,3.9c-2.3,3.1-4,6.7-4.9,10.5c-1.2,4.4-1.8,8.9-1.8,13.5
	c-0.1,2.5,0.4,4.9,1.6,7.1c0.9,1.7,2.6,2.7,4.4,2.7c2.2,0,4.3-1.3,6.3-3.9c2.3-3.2,3.9-6.7,4.9-10.5c1.3-4.4,1.9-8.9,1.9-13.5
	C478.7,54.5,476.7,51.2,472.8,51.2z"/>
<path class="st0" d="M567.7,78.1c0,10.1-3.3,18-10,23.6c-6.7,5.6-16,8.4-28,8.4c-4.8,0-9.6-0.5-14.2-1.7c-4.1-1-8.1-2.6-11.6-4.9
	V79.6c4.1,2.6,8.5,4.6,13.2,6.1c4.3,1.5,8.9,2.4,13.4,2.5c3.4,0,5.9-0.7,7.7-2.1c1.8-1.5,2.7-3.7,2.6-6c0-1.2-0.3-2.4-0.8-3.5
	c-0.6-1.2-1.4-2.3-2.3-3.2c-1-1.1-3.7-3.4-8.1-7.1c-5.3-4.3-9.2-8.7-11.6-13.1c-2.4-4.5-3.7-9.6-3.6-14.7
	c-0.2-11.7,6.5-22.3,17.1-27.2c5.7-2.7,12-4,18.3-3.9c10.3-0.2,20.4,2.4,29.4,7.3L569.9,35c-7.8-4-14.4-6-19.9-6
	c-2.9,0-5.2,0.6-6.7,1.9c-1.6,1.4-2.5,3.5-2.4,5.6c0,2.3,0.8,4.5,2.3,6.3c1.5,1.9,4.4,4.5,8.7,7.8c4.8,3.3,8.8,7.6,12,12.5
	C566.5,67.6,567.8,72.8,567.7,78.1z"/>
<path class="st0" d="M602.7,110.1c-9.5,0-16.9-2.6-22-7.7s-7.7-12.5-7.8-22.1c-0.1-8.9,1.7-17.8,5.4-25.9c3.3-7.3,8.6-13.6,15.3-18
	c6.9-4.4,14.9-6.6,23-6.4c9.5,0,16.9,2.6,22,7.7s7.7,12.5,7.8,22.1c0.1,8.9-1.7,17.8-5.4,25.9c-3.3,7.3-8.6,13.6-15.3,18
	C618.8,108.1,610.8,110.3,602.7,110.1z M613.5,49.8c-3.7,0-6.9,3.2-9.6,9.5c-2.8,6.9-4.1,14.4-4,21.8c0,6.1,1.9,9.1,5.7,9.1
	c3.7,0,6.9-3.2,9.6-9.5c2.8-6.9,4.2-14.4,4.1-21.9c0-3-0.5-5.3-1.6-6.8C616.8,50.7,615.2,49.8,613.5,49.8z"/>
<path class="st0" d="M676.2,110.1c-9.1,0-16.1-2.7-21.2-8.2c-5.1-5.5-7.6-13.3-7.6-23.3c-0.1-8.6,1.7-17.1,5.2-24.9
	c3.2-7.1,8.3-13.1,14.7-17.4c6.4-4.2,13.9-6.3,21.5-6.2c8.7-0.1,17.2,1.8,25.1,5.4L705.5,55c-6.1-2.7-11.2-4.1-15.4-4.1
	c-2.9,0-5.8,1.2-7.9,3.3c-2.4,2.2-4.4,5.5-6,9.8c-1.5,4.1-2.3,8.4-2.3,12.8c0,4.1,0.7,7.2,2,9.1s3.5,2.9,6.5,2.9
	c3.2,0,6.5-0.5,9.5-1.6c3.4-1.2,6.7-2.6,9.8-4.3v21c-3.6,2-7.5,3.5-11.5,4.6C685.7,109.7,680.9,110.2,676.2,110.1z"/>
<path class="st0" d="M729.7,108.8h-26.5l16.3-77.4h26.6L729.7,108.8z M722.8,14.3c0-4.7,1.4-8.2,4.1-10.7S733.3,0,738.2,0
	c4.1,0,7.3,0.8,9.6,2.5c2.3,1.7,3.5,4.3,3.4,7.1c0,4.6-1.3,8.1-4,10.6c-2.7,2.5-6.4,3.7-11.3,3.8C727.1,23.9,722.8,20.7,722.8,14.3
	L722.8,14.3z"/>
<path class="st0" d="M803.7,108.8h-21.1l0.7-8.4h-0.5c-2.1,3.1-4.9,5.7-8.3,7.5c-3.1,1.5-6.5,2.3-10,2.2c-7.2,0-12.7-2.5-16.4-7.6
	c-3.7-5.1-5.6-12.4-5.6-21.9c0.1-8.6,1.8-17.1,5-25c3.3-8.5,7.5-14.9,12.6-19.2c4.6-4.1,10.6-6.4,16.8-6.4c3.5-0.1,7,0.8,10.1,2.6
	c3.3,2.1,5.9,5,7.8,8.4h0.5l3.6-9.6h21.2L803.7,108.8z M775.3,88.9c2.3,0,4.5-1.3,6.5-4c2.3-3.2,4-6.8,5-10.7
	c1.2-4.3,1.8-8.7,1.8-13.1c0.1-2.5-0.4-4.9-1.4-7.1c-0.7-1.7-2.4-2.8-4.2-2.7c-3.5,0-6.6,2.9-9.4,8.6c-2.9,6-4.3,12.6-4.2,19.2
	C769.4,85.6,771.4,88.9,775.3,88.9z"/>
<path class="st0" d="M839.2,108.8h-26.5L835.2,2.4h26.5L839.2,108.8z"/>
</svg>
